Coordinates
version=1
nRows=14
nColumns=42
inDegrees=yes

Units are S.I. units (second, meters, Newtons, ...)
If the header above contains a line with 'inDegrees', this indicates whether rotational values are in degrees (yes) or radians (no).

endheader
time	pelvis_tilt	pelvis_list	pelvis_rotation	pelvis_tx	pelvis_ty	pelvis_tz	hip_flexion_r	hip_adduction_r	hip_rotation_r	knee_angle_r	knee_adduction_r	knee_angle_r_beta	ankle_angle_r	subtalar_angle_r	mtp_angle_r	hip_flexion_l	hip_adduction_l	hip_rotation_l	knee_angle_l	knee_adduction_l	knee_angle_l_beta	ankle_angle_l	subtalar_angle_l	mtp_angle_l	lumbar_extension	lumbar_bending	lumbar_rotation	arm_flex_r	arm_add_r	arm_rot_r	elbow_flex_r	pro_sup_r	wrist_flex_r	wrist_dev_r	arm_flex_l	arm_add_l	arm_rot_l	elbow_flex_l	pro_sup_l	wrist_flex_l	wrist_dev_l
      1.20000000	     19.84479824	      3.44752031	      0.36039801	     -0.79754161	      0.90002842	     -0.06267695	      6.77907387	     -8.36727064	    -14.88988152	     61.68683366	     -5.92069243	      1.07663835	     14.54792208	    -13.49040754	     -7.69447034	    -13.39898299	      6.11062292	      0.97411739	     22.64574624	      4.14153274	      0.39524283	     21.91194588	      3.14819948	     -7.69447034	    -40.87987729	     -3.31686835	     -2.71779260	      4.34383617	     -4.15420970	    -25.18655545	     28.90624381	     90.00000001	      0.00000000	      0.00000000	     10.45867074	     -7.20199189	    -27.17501573	     38.10876481	     90.00000001	      0.00000000	      0.00000000
      1.21000000	     19.93403391	      3.44019420	      0.37159044	     -0.79016034	      0.90016695	     -0.06311072	      7.46231427	     -8.29262477	    -14.80989759	     59.53821007	     -5.54743765	      1.03913780	     14.37922754	    -13.99928226	     -7.68967007	    -14.43873602	      6.23916209	      0.94566499	     21.84120853	      3.80915244	      0.38120100	     22.63506454	      3.70787737	     -7.68967007	    -41.04276266	     -3.24021383	     -2.88596629	      4.12964855	     -4.13917134	    -26.17908696	     28.28947370	     90.00000001	      0.00000000	      0.00000000	     10.88369772	     -7.54395123	    -26.58442907	     37.99337026	     90.00000001	      0.00000000	      0.00000000
      1.22000000	     19.97573047	      3.36066068	      0.42624092	     -0.78291142	      0.90014952	     -0.06330917	      8.11763586	     -8.14077457	    -14.83353367	     57.27882866	     -5.14749717	      0.99970415	     13.64150146	    -14.42606406	     -7.68138447	    -15.22598703	      6.07149718	      0.52911709	     21.44198222	      3.77244740	      0.37423319	     22.97197020	      4.71373724	     -7.68138447	    -41.18860541	     -3.11393794	     -2.99111039	      3.85603491	     -4.00593312	    -27.69126398	     28.08477825	     90.00000001	      0.00000000	      0.00000000	     11.26633936	     -7.87349338	    -25.91479367	     38.20767584	     90.00000001	      0.00000000	      0.00000000
      1.23000000	     19.52411161	      3.59136352	      0.44676993	     -0.77603164	      0.89894698	     -0.06360624	      9.54979206	     -8.56988523	    -15.00515781	     55.51214396	     -4.69739272	      0.96886969	     13.51185134	    -13.89970273	     -7.67898426	    -15.22260144	      6.24447559	      0.07249718	     21.48748753	      3.80721179	      0.37502741	     23.03203211	      4.78454192	     -7.67898426	    -40.86322077	     -3.32765671	     -3.23010433	      3.35519507	     -3.99049193	    -27.73081070	     28.10432899	     90.00000001	      0.00000000	      0.00000000	     11.70635894	     -8.14906962	    -25.80380283	     38.52801388	     90.00000001	      0.00000000	      0.00000000
      1.24000000	     19.71979836	      3.34181751	      0.58318836	     -0.76846803	      0.89907867	     -0.06380067	      9.69528040	     -8.08624307	    -15.16009606	     52.75814049	     -4.42707028	      0.92080326	     12.80112480	    -14.91041464	     -7.66236650	    -16.12127172	      5.95257539	     -1.11425365	     21.25323115	      3.25459616	      0.37093886	     24.36291635	      7.43881754	     -7.66236650	    -41.09872162	     -2.98638324	     -3.28428343	      3.20253412	     -3.89848320	    -29.62763888	     27.54674002	     90.00000001	      0.00000000	      0.00000000	     12.11676062	     -8.45265561	    -25.05106689	     38.40008272	     90.00000001	      0.00000000	      0.00000000
      1.25000000	     19.64280290	      3.38176104	      0.69934855	     -0.76122761	      0.89859092	     -0.06406748	     10.27724569	     -8.13766644	    -15.39743879	     50.35461354	     -4.01400360	      0.87885380	     12.41652154	    -14.99730957	     -7.65644814	    -16.71264765	      5.94289967	     -1.69296619	     20.97599867	      3.03789945	      0.36610024	     24.81627903	      8.43849672	     -7.65644814	    -41.10882801	     -2.95237056	     -3.48468779	      2.79906225	     -3.90585945	    -30.02120071	     27.35996270	     90.00000001	      0.00000000	      0.00000000	     12.57819767	     -8.71770179	    -24.77915407	     38.43577520	     90.00000001	      0.00000000	      0.00000000
      1.26000000	     19.23074868	      3.59448709	      0.78719375	     -0.75422340	      0.89737127	     -0.06436729	     11.33031774	     -8.37748329	    -15.59859820	     48.15693139	     -3.72200222	      0.84049701	     12.28155380	    -14.69738735	     -7.65373679	    -16.79146402	      6.24444204	     -2.17420961	     20.94185153	      2.63983333	      0.36550426	     25.10151151	      8.79418165	     -7.65373679	    -40.79941192	     -3.10495072	     -3.78034281	      2.34430517	     -3.89293610	    -30.16857965	     27.31103470	     90.00000001	      0.00000000	      0.00000000	     12.98716538	     -8.97889599	    -24.61089529	     38.60540485	     90.00000001	      0.00000000	      0.00000000
      1.27000000	     19.48042709	      3.32571723	      1.01538639	     -0.74669203	      0.89740918	     -0.06434606	     11.18892243	     -8.00032563	    -15.98458166	     45.33611478	     -3.24219274	      0.79126447	     11.55515291	    -14.99593003	     -7.64793703	    -17.71690870	      5.64625226	     -3.39912424	     20.76601598	      2.56936115	      0.36243535	     26.00468096	     11.21172420	     -7.64793703	    -41.11319346	     -2.74633174	     -3.79199809	      2.00153564	     -3.90097108	    -31.13187830	     27.01609356	     90.00000001	      0.00000000	      0.00000000	     13.49407583	     -9.22420458	    -24.13835444	     38.52394852	     90.00000001	      0.00000000	      0.00000000
      1.28000000	     18.90353430	      3.64017768	      1.07377463	     -0.73965026	      0.89564897	     -0.06434855	     12.49367359	     -8.50350254	    -16.37076560	     43.51567979	     -2.82884530	      0.75949189	     11.43669327	    -14.42012709	     -7.64590709	    -17.57959792	      5.86560621	     -3.98405488	     20.82857294	      2.55462374	      0.36352718	     26.06935729	     11.26758305	     -7.64590709	    -40.62505149	     -3.07513935	     -4.00349526	      1.42890724	     -3.84902429	    -31.17008982	     27.05889896	     90.00000001	      0.00000000	      0.00000000	     13.91889380	     -9.43052362	    -24.03377202	     38.85854535	     90.00000001	      0.00000000	      0.00000000
      1.29000000	     19.01324536	      3.16487093	      1.33481276	     -0.73210079	      0.89527565	     -0.06418376	     12.32369987	     -7.64166312	    -16.61342760	     40.39550521	     -2.64006664	      0.70503457	     10.77610673	    -14.53849882	     -7.63323726	    -17.93025157	      5.11294826	     -6.48707312	     21.47746903	      1.73936053	      0.37485255	     27.96905120	     15.88829151	     -7.63323726	    -40.77409386	     -2.50637750	     -3.95086388	      1.22447855	     -3.82803716	    -32.78504244	     26.73064331	     90.00000001	      0.00000000	      0.00000000	     14.33672299	     -9.65695071	    -23.53540210	     38.73617987	     90.00000001	      0.00000000	      0.00000000
      1.30000000	     18.56466470	      3.43301691	      1.48263289	     -0.72506168	      0.89384899	     -0.06422832	     13.19044146	     -7.91007029	    -16.76682154	     38.19331514	     -2.28291698	      0.66659910	     10.60030045	    -13.89545089	     -7.63082840	    -17.94902470	      5.41746723	     -6.86571788	     21.46949589	      1.35727686	      0.37471339	     28.18264024	     16.16895114	     -7.63082840	    -40.42942935	     -2.72762641	     -4.26972192	      0.77072030	     -3.79448705	    -32.85304634	     26.68393237	     90.00000001	      0.00000000	      0.00000000	     14.76391056	     -9.88858043	    -23.39705402	     38.84714612	     90.00000001	      0.00000000	      0.00000000
      1.31000000	     18.64585563	      3.11899764	      1.73475819	     -0.71746944	      0.89335469	     -0.06391642	     13.06700923	     -7.40691879	    -17.12057951	     35.42846208	     -1.90402753	      0.61834331	     10.14877764	    -13.27016470	     -7.62132118	    -18.45211334	      4.67462487	     -8.62869976	     21.77043439	      1.15339820	      0.37996576	     29.24616864	     19.10341814	     -7.62132118	    -40.56446988	     -2.34458624	     -4.19819756	      0.39773587	     -3.79568427	    -33.79775753	     26.49483436	     90.00000001	      0.00000000	      0.00000000	     15.23058511	    -10.04235734	    -23.09139405	     38.82355410	     90.00000001	      0.00000000	      0.00000000
      1.32000000	     18.44259761	      3.11193299	      1.92543562	     -0.71010101	      0.89230939	     -0.06368444	     13.41252022	     -7.28486944	    -17.35347069	     33.02475260	     -1.58236488	      0.57639067	      9.90405926	    -12.33136763	     -7.61329503	    -18.67146954	      4.45515687	     -9.70422714	     21.97053755	      0.86324088	      0.38345822	     29.84796480	     20.72504874	     -7.61329503	    -40.43608838	     -2.29073869	     -4.31178004	     -0.01349157	     -3.77643147	    -34.30661748	     26.39684258	     90.00000001	      0.00000000	      0.00000000	     15.65249837	    -10.20785247	    -22.90407939	     38.86226016	     90.00000001	      0.00000000	      0.00000000
      1.33000000	     18.00104119	      3.36512445	      2.12574983	     -0.70296624	      0.89087454	     -0.06360945	     14.10087717	     -7.51899075	    -17.34870868	     30.92831944	     -1.17059953	      0.53980101	      9.73032105	    -11.34818895	     -7.61083503	    -18.65933929	      4.67148977	    -10.07733461	     22.04578588	      0.52720835	      0.38477155	     30.07249486	     21.11011215	     -7.61083503	    -40.11189652	     -2.47768000	     -4.60784114	     -0.44345251	     -3.76312361	    -34.40665559	     26.30466814	     90.00000001	      0.00000000	      0.00000000	     16.06029145	    -10.39629434	    -22.75755363	     38.91519392	     90.00000001	      0.00000000	      0.00000000
